<?xml version="1.0" encoding="UTF-8"?>
<svg xmlns="http://www.w3.org/2000/svg" version="1.1" viewBox="0 0 800 200">
  <!-- Generator: Adobe Illustrator 29.0.0, SVG Export Plug-In . SVG Version: 2.1.0 Build 186)  -->
  <defs>
    <style>
      .st0 {
        fill: #55b25b;
      }

      .st1 {
        fill: #fff;
      }
    </style>
  </defs>
  <g id="Camada_1">
    <g>
      <path class="st1" d="M215.08,147.41V50.86h17.53v40.26h49.71v-40.26h17.53v96.55h-17.53v-41.63h-49.71v41.63h-17.53Z"/>
      <path class="st1" d="M352.3,148.78c-7.58,0-14.1-1.41-19.58-4.25-5.48-2.83-9.7-6.85-12.67-12.05-2.97-5.2-4.45-11.37-4.45-18.49s1.44-13.01,4.31-18.21c2.88-5.2,6.85-9.29,11.91-12.26,5.07-2.97,10.84-4.45,17.32-4.45s11.87,1.37,16.43,4.11c4.56,2.74,8.1,6.62,10.61,11.64,2.51,5.02,3.77,11,3.77,17.94v5.07h-50.53v-9.86h38.48l-2.19,2.05c0-6.21-1.37-10.98-4.11-14.31-2.74-3.33-6.67-5-11.78-5-3.83,0-7.1.89-9.79,2.67-2.69,1.78-4.75,4.29-6.16,7.53-1.42,3.24-2.12,7.1-2.12,11.57v.96c0,5.02.77,9.18,2.33,12.46,1.55,3.29,3.88,5.75,6.98,7.39,3.1,1.64,6.94,2.47,11.5,2.47,3.74,0,7.48-.57,11.23-1.71,3.74-1.14,7.17-2.94,10.27-5.41l4.79,11.5c-3.2,2.65-7.21,4.75-12.05,6.3-4.84,1.55-9.68,2.33-14.52,2.33Z"/>
      <path class="st1" d="M384.2,147.41l31.36-38.62v8.08l-29.58-36.43h19.99l19.17,24.51h-6.02l19.17-24.51h19.99l-29.58,36.29v-7.67l31.36,38.34h-20.13l-20.82-26.29h5.75l-20.68,26.29h-19.99Z"/>
      <path class="st1" d="M498.83,148.78c-6.94,0-12.96-1.41-18.08-4.25-5.11-2.83-9.09-6.87-11.91-12.12-2.83-5.25-4.25-11.44-4.25-18.56s1.42-13.28,4.25-18.49c2.83-5.2,6.8-9.22,11.91-12.05,5.11-2.83,11.14-4.25,18.08-4.25s12.96,1.42,18.08,4.25c5.11,2.83,9.08,6.85,11.91,12.05,2.83,5.2,4.25,11.37,4.25,18.49s-1.42,13.31-4.25,18.56c-2.83,5.25-6.8,9.29-11.91,12.12-5.11,2.83-11.14,4.25-18.08,4.25ZM498.83,135.77c5.11,0,9.22-1.85,12.33-5.55,3.1-3.7,4.66-9.15,4.66-16.37s-1.55-12.76-4.66-16.36c-3.1-3.61-7.21-5.41-12.33-5.41s-9.22,1.8-12.32,5.41c-3.1,3.61-4.66,9.06-4.66,16.36s1.55,12.67,4.66,16.37c3.1,3.7,7.21,5.55,12.32,5.55Z"/>
      <path class="st1" d="M549.22,172.06v-91.07h8.35v16.57h-1.51c1.55-5.48,4.52-9.81,8.9-13.01,4.38-3.19,9.68-4.79,15.89-4.79s11.11,1.42,15.54,4.25c4.43,2.83,7.85,6.8,10.27,11.91,2.42,5.11,3.63,11.18,3.63,18.21s-1.21,13.13-3.63,18.28c-2.42,5.16-5.82,9.13-10.2,11.91-4.38,2.79-9.59,4.18-15.61,4.18s-11.5-1.6-15.89-4.79c-4.38-3.19-7.35-7.44-8.9-12.74h1.51v41.08h-8.35ZM579.62,141.52c6.75,0,12.14-2.37,16.16-7.12,4.02-4.75,6.02-11.5,6.02-20.27s-2.01-15.38-6.02-20.13c-4.02-4.75-9.41-7.12-16.16-7.12s-12.14,2.37-16.16,7.12c-4.02,4.75-6.03,11.46-6.03,20.13s2.01,15.52,6.03,20.27c4.02,4.75,9.4,7.12,16.16,7.12Z"/>
      <path class="st1" d="M647.27,148.5c-6.21,0-10.98-1.92-14.31-5.75-3.33-3.83-5-9.27-5-16.3V50.86h8.35v74.64c0,3.47.48,6.37,1.44,8.7.96,2.33,2.35,4.09,4.18,5.27,1.83,1.19,4.06,1.78,6.71,1.78,1.19,0,2.3-.07,3.36-.21,1.05-.14,2.03-.34,2.94-.62l-.27,7.26c-1.37.27-2.65.48-3.83.62-1.19.14-2.37.21-3.56.21Z"/>
      <path class="st1" d="M687.54,148.5c-4.47,0-8.47-.87-11.98-2.6-3.52-1.73-6.3-4.11-8.35-7.12-2.05-3.01-3.08-6.39-3.08-10.14,0-4.93,1.23-8.81,3.7-11.64,2.47-2.83,6.62-4.81,12.46-5.96,5.84-1.14,13.88-1.71,24.1-1.71h5.89v6.16h-5.75c-6.12,0-11.25.18-15.41.55-4.16.37-7.42,1.03-9.79,1.99-2.38.96-4.04,2.26-5,3.9-.96,1.64-1.44,3.65-1.44,6.03,0,4.11,1.41,7.44,4.25,10,2.83,2.56,6.66,3.83,11.5,3.83,3.93,0,7.37-.94,10.34-2.81,2.97-1.87,5.32-4.45,7.05-7.74,1.73-3.29,2.6-7.03,2.6-11.23v-15.61c0-6.12-1.23-10.57-3.7-13.35-2.47-2.78-6.39-4.18-11.78-4.18-4.02,0-7.87.6-11.57,1.78-3.7,1.19-7.51,3.06-11.43,5.62l-3.29-6.44c2.37-1.64,5-3.06,7.87-4.25,2.88-1.19,5.89-2.12,9.04-2.81,3.15-.69,6.23-1.03,9.24-1.03,5.39,0,9.84.91,13.35,2.74,3.51,1.83,6.12,4.57,7.81,8.22,1.69,3.65,2.53,8.35,2.53,14.1v42.59h-7.94v-16.02h1.37c-.82,3.56-2.28,6.62-4.38,9.18-2.1,2.56-4.7,4.52-7.81,5.89-3.1,1.37-6.57,2.05-10.41,2.05Z"/>
      <path class="st1" d="M746.97,172.06l11.78-26.84v3.83l-29.03-68.06h9.31l25.2,61.35h-3.42l25.34-61.35h9.04l-39.17,91.07h-9.04Z"/>
    </g>
  </g>
  <g id="Camada_2">
    <g>
      <path class="st0" d="M90.36,55.81H10.54c-1.12,0-2.1-.75-2.39-1.83-.29-1.08.18-2.22,1.15-2.78L89.12,4.93c.77-.44,1.71-.45,2.48,0,.77.44,1.24,1.26,1.24,2.14v46.26c0,1.37-1.11,2.47-2.47,2.47ZM19.75,50.86h68.14V11.37L19.75,50.86Z"/>
      <path class="st0" d="M170.12,55.81h-79.76c-1.37,0-2.47-1.11-2.47-2.47V7.11c0-.88.47-1.7,1.24-2.14.77-.44,1.71-.44,2.48,0l79.76,46.22c.97.56,1.44,1.7,1.15,2.78-.29,1.08-1.27,1.83-2.39,1.83ZM92.84,50.86h68.08L92.84,11.4v39.46Z"/>
      <path class="st0" d="M90.36,194.59c-.42,0-.85-.11-1.24-.33L9.3,148c-.76-.44-1.23-1.26-1.23-2.14s.47-1.7,1.23-2.14l39.93-23.1c.57-.33,1.25-.42,1.88-.25.63.17,1.18.59,1.5,1.16l39.89,69.36c.56.97.4,2.2-.4,2.99-.48.47-1.11.72-1.75.72ZM15.48,145.86l68.14,39.49-34.05-59.21-34.08,19.72Z"/>
      <path class="st0" d="M10.54,148.33c-.43,0-.85-.11-1.24-.33-.77-.44-1.24-1.26-1.24-2.14V53.33c0-1.12.75-2.1,1.84-2.39,1.08-.29,2.22.19,2.78,1.16l39.93,69.42c.68,1.18.28,2.69-.9,3.37l-39.93,23.1c-.38.22-.81.33-1.24.33ZM13.02,62.6v78.97l34.08-19.72L13.02,62.6Z"/>
      <path class="st0" d="M90.37,194.59c-.64,0-1.27-.25-1.75-.72-.79-.79-.96-2.02-.4-2.99l39.89-69.36c.33-.57.87-.99,1.5-1.16.64-.17,1.31-.08,1.88.25l39.93,23.1c.76.44,1.23,1.26,1.23,2.14s-.47,1.7-1.23,2.14l-79.82,46.26c-.39.22-.82.33-1.24.33ZM131.17,126.14l-34.05,59.21,68.13-39.49-34.08-19.72Z"/>
      <path class="st0" d="M170.16,55.84c-.42,0-.83-.11-1.21-.32-1.18-.68-1.6-2.19-.93-3.37l.02-.03c.55-.98,1.7-1.46,2.78-1.18,1.09.29,1.84,1.27,1.84,2.39,0,.88-.47,1.72-1.24,2.16-.39.23-.83.34-1.26.34Z"/>
      <path class="st0" d="M170.18,148.33c-.43,0-.86-.11-1.24-.33l-39.93-23.1c-1.18-.68-1.58-2.19-.9-3.37l39.89-69.36c.22-.38.53-.69.91-.91.76-.44,1.73-.45,2.49,0,.77.44,1.25,1.25,1.25,2.13v92.49c0,.88-.47,1.7-1.24,2.14-.38.22-.81.33-1.24.33ZM133.63,121.85l34.08,19.72V62.6l-34.08,59.25Z"/>
      <path class="st0" d="M170.17,55.85c-.64,0-1.28-.24-1.75-.72-.79-.79-.97-2.01-.41-2.98l.02-.03c.68-1.18,2.2-1.59,3.38-.91.77.44,1.25,1.26,1.25,2.15s-.47,1.71-1.23,2.15c-.39.22-.82.33-1.25.33Z"/>
      <path class="st0" d="M170.15,55.83c-.44,0-.88-.12-1.27-.35-.96-.57-1.43-1.72-1.13-2.79.29-1.07,1.26-1.83,2.37-1.83s2.12.74,2.42,1.82c.3,1.07-.13,2.21-1.09,2.78l-.03.02c-.39.23-.83.35-1.27.35Z"/>
      <path class="st0" d="M90.36,102c-.43,0-.86-.11-1.24-.33L9.3,55.48c-.97-.56-1.44-1.7-1.15-2.78.29-1.08,1.27-1.83,2.39-1.83h159.58c.43,0,.86.11,1.24.33l.03.02c.77.44,1.24,1.26,1.24,2.14s-.47,1.7-1.23,2.14l-79.79,46.17c-.38.22-.81.33-1.24.33ZM19.76,55.81l70.61,40.86,70.61-40.86H19.76Z"/>
      <path class="st0" d="M90.36,194.59c-.87,0-1.69-.46-2.14-1.24L8.4,54.57c-.56-.97-.39-2.19.4-2.99.79-.79,2.02-.95,2.99-.39l79.82,46.19c.76.44,1.23,1.26,1.23,2.14v92.6c0,1.12-.75,2.1-1.84,2.39-.21.06-.43.08-.64.08ZM17.28,60.09l70.61,122.76v-81.9L17.28,60.09Z"/>
      <path class="st0" d="M90.36,194.59c-.21,0-.43-.03-.64-.08-1.08-.29-1.84-1.27-1.84-2.39v-92.45c0-.88.47-1.81,1.23-2.25l79.79-46.17c.97-.56,2.19-.4,2.99.39.79.79.96,2.02.4,2.99l-79.79,138.73c-.45.78-1.27,1.24-2.14,1.24ZM92.84,100.99v81.87l70.57-122.7-70.57,40.84Z"/>
      <path class="st0" d="M170.15,55.83c-.43,0-.85-.11-1.22-.32h-.02c-.76-.45-1.23-1.26-1.24-2.13,0-.88.45-1.69,1.21-2.14.97-.58,2.21-.44,3.01.35.8.78.99,2,.44,2.98-.32.58-.87,1.01-1.51,1.18-.22.06-.45.09-.68.09Z"/>
      <path class="st0" d="M90.36,102.03c-.43,0-.85-.11-1.24-.33-.77-.44-1.24-1.26-1.24-2.14s.47-1.74,1.23-2.18l79.79-46.17c.77-.44,1.71-.44,2.48,0,.57.33.99.87,1.16,1.51.17.63.09,1.31-.24,1.88-.22.38-.54.71-.92.93l-79.79,46.17c-.38.22-.81.33-1.24.33Z"/>
    </g>
  </g>
</svg>